<?xml version="1.0" encoding="UTF-8"?><svg id="Layer_2" xmlns="http://www.w3.org/2000/svg" viewBox="0 0 262.37 41.55"><defs><style>.cls-1{fill:#222148;stroke-width:0px;}</style></defs><g id="Layer_1-2"><g id="Layer_2-2"><g id="Layer_2-2-2"><g id="Layer_1-2"><path class="cls-1" d="m72.39,26.96h-9.59l-1.54,4.54h-6.55l9.29-25.69h7.24l9.29,25.69h-6.62l-1.54-4.54h.02Zm-1.61-4.83l-3.18-9.4-3.15,9.4h6.33Z"/><path class="cls-1" d="m99.18,18.16c-.68,1.23-1.73,2.23-3.15,2.98-1.42.76-3.17,1.13-5.27,1.13h-3.88v9.22h-6.26V5.81h10.14c2.05,0,3.78.35,5.2,1.06,1.41.71,2.48,1.68,3.18,2.93.71,1.24,1.06,2.67,1.06,4.28,0,1.49-.34,2.85-1.02,4.08Zm-6.22-1.7c.59-.56.88-1.35.88-2.38s-.29-1.82-.88-2.38-1.48-.84-2.67-.84h-3.4v6.44h3.4c1.19,0,2.09-.28,2.67-.84Z"/><path class="cls-1" d="m134.82,5.81v25.69h-6.26v-15.4l-5.74,15.4h-5.05l-5.78-15.44v15.44h-6.26V5.81h7.39l7.21,17.78,7.14-17.78s7.35,0,7.35,0Z"/><path class="cls-1" d="m136.52,15.72c.79-1.59,1.87-2.8,3.24-3.66,1.37-.85,2.89-1.28,4.57-1.28,1.44,0,2.7.29,3.79.88,1.08.59,1.92,1.35,2.51,2.31v-2.89h6.26v20.42h-6.26v-2.89c-.61.95-1.46,1.72-2.54,2.31-1.09.59-2.35.88-3.79.88-1.66,0-3.17-.43-4.54-1.3-1.37-.87-2.45-2.1-3.24-3.7-.79-1.6-1.19-3.45-1.19-5.54s.4-3.94,1.19-5.52v-.02h0Zm12.81,1.87c-.87-.9-1.92-1.35-3.17-1.35s-2.3.45-3.17,1.34-1.3,2.12-1.3,3.68.43,2.8,1.3,3.71c.87.91,1.92,1.37,3.17,1.37s2.3-.45,3.17-1.35,1.3-2.13,1.3-3.7-.43-2.79-1.3-3.7Z"/><path class="cls-1" d="m170.05,26.19v5.31h-3.18c-2.27,0-4.04-.55-5.31-1.67-1.27-1.11-1.9-2.92-1.9-5.43v-8.12h-2.49v-5.2h2.49v-4.98h6.26v4.98h4.1v5.2h-4.1v8.2c0,.61.15,1.05.44,1.32.29.27.78.4,1.46.4h2.23,0Z"/><path class="cls-1" d="m170.84,15.72c.87-1.59,2.07-2.8,3.62-3.66,1.55-.85,3.32-1.28,5.32-1.28,2.56,0,4.7.67,6.42,2.01s2.85,3.23,3.38,5.67h-6.66c-.56-1.56-1.65-2.34-3.26-2.34-1.15,0-2.06.45-2.74,1.34-.68.89-1.02,2.17-1.02,3.82s.34,2.93,1.02,3.82c.68.89,1.6,1.34,2.74,1.34,1.61,0,2.7-.78,3.26-2.34h6.66c-.54,2.39-1.67,4.27-3.4,5.63-1.73,1.37-3.87,2.05-6.4,2.05-2,0-3.77-.43-5.32-1.28s-2.76-2.07-3.62-3.66c-.87-1.59-1.3-3.44-1.3-5.56s.43-3.98,1.3-5.56h0Z"/><path class="cls-1" d="m208.36,13.18c1.41,1.55,2.12,3.68,2.12,6.38v11.93h-6.22v-11.09c0-1.37-.35-2.43-1.06-3.18-.71-.76-1.66-1.13-2.85-1.13s-2.15.38-2.85,1.13c-.71.76-1.06,1.82-1.06,3.18v11.09h-6.26V4.42h6.26v9.4c.63-.9,1.5-1.62,2.6-2.16s2.33-.8,3.7-.8c2.34,0,4.22.77,5.63,2.32h0Z"/><path class="cls-1" d="m212.55,7.98c-.7-.65-1.04-1.45-1.04-2.4s.35-1.79,1.04-2.43c.69-.65,1.59-.97,2.69-.97s1.96.32,2.65.97c.7.65,1.04,1.46,1.04,2.43s-.35,1.75-1.04,2.4c-.7.65-1.58.97-2.65.97s-1.99-.32-2.69-.97Zm5.8,3.09v20.42h-6.26V11.08h6.26Z"/><path class="cls-1" d="m238.31,13.18c1.43,1.55,2.14,3.68,2.14,6.38v11.93h-6.22v-11.09c0-1.37-.35-2.43-1.06-3.18-.71-.76-1.66-1.13-2.85-1.13s-2.15.38-2.85,1.13c-.71.76-1.06,1.82-1.06,3.18v11.09h-6.26V11.08h6.26v2.71c.63-.9,1.49-1.62,2.56-2.14s2.28-.79,3.62-.79c2.39,0,4.3.77,5.73,2.32h0Z"/><path class="cls-1" d="m253.6,11.66c1.08.59,1.92,1.35,2.51,2.31v-2.89h6.26v20.38c0,1.88-.37,3.58-1.12,5.1-.74,1.52-1.88,2.74-3.4,3.64-1.52.9-3.42,1.35-5.69,1.35-3.02,0-5.48-.71-7.35-2.14-1.88-1.43-2.95-3.36-3.22-5.8h6.18c.19.78.66,1.4,1.39,1.85.73.45,1.63.68,2.71.68,1.29,0,2.32-.37,3.09-1.12.77-.74,1.15-1.93,1.15-3.57v-2.89c-.61.95-1.45,1.73-2.52,2.32-1.07.6-2.33.9-3.77.9-1.68,0-3.21-.43-4.57-1.3-1.37-.87-2.45-2.1-3.24-3.7-.79-1.6-1.19-3.45-1.19-5.54s.4-3.94,1.19-5.52c.79-1.59,1.87-2.8,3.24-3.66,1.37-.85,2.89-1.28,4.57-1.28,1.44,0,2.7.29,3.79.88h0Zm1.21,5.93c-.87-.9-1.92-1.35-3.17-1.35s-2.3.45-3.17,1.34-1.3,2.12-1.3,3.68.43,2.8,1.3,3.71c.87.91,1.92,1.37,3.17,1.37s2.3-.45,3.17-1.35,1.3-2.13,1.3-3.7-.43-2.79-1.3-3.7Z"/><path class="cls-1" d="m9.95,39.12H1.54c-.52,0-1-.26-1.29-.7-.29-.43-.33-.98-.13-1.46l7.52-17.4L.13,2.16C-.08,1.68-.03,1.13.25.7c.29-.43.77-.7,1.29-.7h8.41c.62,0,1.17.37,1.42.93l7.79,18.02c.17.39.17.83,0,1.22l-7.79,18.02c-.24.57-.8.93-1.42.93Z"/><path class="cls-1" d="m24.66,39.12h-8.41c-.52,0-1-.26-1.29-.7-.29-.43-.33-.98-.13-1.46l7.52-17.4L14.84,2.16c-.21-.48-.16-1.03.13-1.46C15.26.27,15.74,0,16.26,0h8.41C25.29,0,25.84.37,26.09.93l7.79,18.02c.17.39.17.83,0,1.22l-7.79,18.02c-.24.57-.8.93-1.42.93,0,0-.01,0-.01,0Z"/><path class="cls-1" d="m39.19,39.12h-8.41c-.52,0-1-.26-1.29-.7-.29-.43-.33-.98-.13-1.46l7.52-17.4L29.37,2.16c-.21-.48-.16-1.03.13-1.46C29.79.27,30.27,0,30.79,0h8.41C39.82,0,40.37.37,40.62.93l7.79,18.02c.17.39.17.83,0,1.22l-7.79,18.02c-.24.57-.8.93-1.42.93h-.01Z"/></g></g></g></g></svg>