<?xml version="1.0" encoding="UTF-8"?><svg id="Layer_2" xmlns="http://www.w3.org/2000/svg" viewBox="0 0 103.33 32.5"><defs><style>.cls-1{fill:#222148;stroke-width:0px;}</style></defs><g id="Layer_1-2"><g id="Layer_2-2"><path class="cls-1" d="m72.96,11.11c-.78-1.28-1.91-2.32-3.25-3-2.93-1.44-6.38-1.4-9.28.1-1.38.73-2.53,1.84-3.32,3.19-.82,1.39-1.24,2.98-1.22,4.6-.04,1.64.39,3.26,1.23,4.67.83,1.38,2.04,2.48,3.49,3.18,1.62.79,3.4,1.19,5.2,1.15l2.53-4.44c-.77.28-1.58.41-2.4.4-1,.03-2-.19-2.89-.64-.78-.43-1.39-1.11-1.73-1.94l12.85-2.57c.04-1.65-.38-3.28-1.21-4.7Zm-12.13,4.43c-.02-1.25.43-2.46,1.26-3.39.82-.83,1.94-1.27,3.1-1.23.95-.03,1.88.26,2.65.81.72.52,1.24,1.29,1.45,2.16,0,0-8.46,1.65-8.46,1.65Z"/><path class="cls-1" d="m82.79,21c-.59.04-1.17-.18-1.58-.6-.39-.48-.59-1.08-.55-1.7v-7.46h5.34l2.15-3.87h-7.53v-3.84l-5,1v14.24c-.12,1.72.49,3.41,1.68,4.65,1.34,1.13,3.06,1.69,4.81,1.58.76,0,1.51-.09,2.25-.28.65-.15,1.27-.43,1.82-.82l-1.32-3.55c-.6.43-1.33.66-2.07.65Z"/><polygon class="cls-1" points="94.19 20.87 103.04 10.4 103.04 7.37 90.21 7.37 88.06 11.24 96.68 11.24 87.83 21.71 87.83 24.74 101.18 24.74 103.33 20.87 94.19 20.87"/><path class="cls-1" d="m47,24.44c-.05-1.58-.32-3.15-.82-4.65-.45-1.37-.98-2.7-1.6-4-1.21-2.68-2.75-5.19-4.58-7.49-.52-.63-1.07-1.25-1.65-1.84-1.19-1.21-2.52-2.3-3.94-3.23-.44-.29-.89-.56-1.34-.81-.89-.49-1.82-.92-2.78-1.28C28.09.31,25.63-.1,23.28.02c-3.79.19-7.78,1.63-10.57,4.27-3.61,3.42-6.71,7.34-9.22,11.64-1.58,2.56-3.49,5.83-3.49,8.94,0,1.69.59,3.35,1.66,4.66,2.44,2.98,7.11,3.19,10.57,2.27,1.91-.46,3.76-1.18,5.48-2.13,1.34-.76,2.79-1.32,4.29-1.67v-.04c2.11-.38,4.29-.18,6.3.58v.04c.79.27,1.55.61,2.29,1,2.25,1.2,4.59,2.37,7.13,2.79,1.34.22,2.73.16,4.04-.23,1.64-.48,2.84-1.25,3.82-2.66s1.48-3.28,1.42-5.04Z"/></g></g></svg>