<?xml version="1.0" encoding="UTF-8"?><svg id="Layer_2" xmlns="http://www.w3.org/2000/svg" viewBox="0 0 179.51 26.81"><defs><style>.cls-1{fill:#222148;stroke-width:0px;}</style></defs><g id="Layer_1-2"><g id="Layer_2-2"><polygon class="cls-1" points="0 .52 0 26.29 20.69 26.29 20.69 20.65 7.22 20.65 7.22 15.94 18.67 15.94 18.67 10.49 7.22 10.49 7.22 6.15 20.21 6.15 20.21 .52 0 .52"/><polygon class="cls-1" points="40.64 .52 40.64 14.25 29.27 .52 23.27 .52 23.27 26.29 30.41 26.29 30.41 12.55 41.79 26.29 47.79 26.29 47.79 .52 40.64 .52"/><path class="cls-1" d="m54.45,26.03c-1.96-.51-3.56-1.2-4.79-2.06l2.39-5.37c1.15.76,2.49,1.37,4.01,1.84,1.52.47,3.02.7,4.49.7,2.8,0,4.2-.7,4.2-2.1,0-.74-.4-1.28-1.2-1.64-.8-.36-2.08-.73-3.85-1.12-1.94-.42-3.56-.87-4.86-1.34-1.3-.48-2.42-1.24-3.35-2.3-.93-1.06-1.4-2.48-1.4-4.27,0-1.57.43-2.99,1.29-4.25.86-1.26,2.14-2.26,3.85-3,1.72-.75,3.81-1.12,6.29-1.12,1.69,0,3.36.19,5.01.57,1.64.38,3.09.94,4.35,1.67l-2.25,5.41c-2.45-1.32-4.83-1.99-7.14-1.99-1.45,0-2.5.22-3.17.64-.66.43-.99.99-.99,1.67s.39,1.2,1.18,1.55c.78.34,2.05.7,3.79,1.07,1.96.42,3.59.86,4.88,1.34,1.29.48,2.41,1.24,3.35,2.28s1.42,2.46,1.42,4.25c0,1.55-.43,2.94-1.29,4.2-.86,1.25-2.15,2.25-3.87,3s-3.81,1.12-6.26,1.12c-2.09,0-4.11-.26-6.07-.77"/><polygon class="cls-1" points="73.82 .52 81.11 .52 81.11 26.29 73.82 26.29 73.82 10.31 73.82 .52"/><path class="cls-1" d="m102.09,12.85h6.44v10.68c-1.47,1.06-3.17,1.86-5.08,2.43-1.91.56-3.83.85-5.74.85-2.7,0-5.13-.57-7.29-1.71s-3.85-2.73-5.08-4.77-1.84-4.34-1.84-6.92.61-4.88,1.84-6.92c1.23-2.04,2.93-3.63,5.12-4.77C92.64.58,95.11.01,97.86.01c2.4,0,4.56.41,6.48,1.22,1.91.81,3.51,1.98,4.79,3.5l-4.64,4.2c-1.74-1.92-3.83-2.87-6.26-2.87-2.21,0-3.99.67-5.34,2.01-1.35,1.34-2.03,3.12-2.03,5.36,0,1.42.31,2.69.92,3.81.61,1.12,1.47,1.99,2.58,2.61,1.1.63,2.37.94,3.79.94s2.71-.28,3.94-.85v-7.09Z"/><polygon class="cls-1" points="136.22 .52 136.22 26.29 128.93 26.29 128.93 16.24 118.99 16.24 118.99 26.29 111.7 26.29 111.7 .52 118.99 .52 118.99 10.2 128.93 10.2 128.93 .52 136.22 .52"/><polygon class="cls-1" points="145.38 6.3 137.47 6.3 137.47 .52 160.55 .52 160.55 6.3 152.67 6.3 152.67 26.29 145.38 26.29 145.38 6.3"/><polygon class="cls-1" points="179.51 16.09 173.29 16.09 173.29 22.16 167.62 22.16 167.62 16.09 161.36 16.09 161.36 10.71 167.62 10.71 167.62 4.64 173.29 4.64 173.29 10.71 179.51 10.71 179.51 16.09"/></g></g></svg>