<?xml version="1.0" encoding="UTF-8"?><svg id="Layer_2" xmlns="http://www.w3.org/2000/svg" viewBox="0 0 171.31 37.75"><defs><style>.cls-1{fill:#222148;stroke-width:0px;}</style></defs><g id="Layer_1-2"><g id="Layer_2-2"><path class="cls-1" d="m94.34,13.66c-.53.74-1.26,1.53-2.18,2.36l-.14.12-.1-.16c-.93-1.42-1.4-2.71-1.4-3.81,0-.76.24-1.37.71-1.81s1.09-.66,1.85-.66c1.36,0,2.07.7,2.07,2.02,0,.53-.27,1.16-.81,1.93m-.58,16.41c-.92.23-1.89.35-2.88.35-1.53,0-2.75-.3-3.62-.89-.89-.6-1.35-1.43-1.35-2.46,0-1.15.83-2.5,2.46-3.99l.13-.12,5.5,7.05-.24.06Zm12.37.05l.16-.2c1.19-1.52,2.13-3.21,2.79-5.03.64-1.77.98-3.67,1-5.64h-7.82c-.03,2.44-.73,4.65-2.09,6.55l-.12.17-4.17-5.06.15-.1c2.26-1.42,4.06-3.03,5.35-4.76,1.28-1.73,1.93-3.44,1.93-5.1,0-2.58-.93-4.64-2.76-6.12-1.84-1.49-4.42-2.24-7.67-2.24s-5.89.81-7.76,2.41c-1.86,1.59-2.81,3.81-2.81,6.59,0,2.05.67,4.05,1.98,5.94l.09.13-.13.09c-2.03,1.42-3.65,3.01-4.81,4.74-1.15,1.71-1.74,3.41-1.74,5.03,0,3.1,1.12,5.58,3.32,7.35,2.22,1.78,5.28,2.68,9.11,2.68,1.87,0,3.71-.24,5.45-.71,1.74-.47,3.37-1.14,4.86-2.01l.08-.05.09.04c1.6.67,3.38,1.2,5.27,1.57,1.84.36,3.8.55,5.81.56v-6.3c-1.96,0-3.75-.17-5.31-.49l-.26-.05h0Z"/><path class="cls-1" d="m129.49,37.71c5.18,0,8.99-1.12,12.17-3.27v-15.25h-9.09v9.97c-.64.29-1.32.39-2.25.39-6.01,0-9.38-4.2-9.38-9.48s3.52-9.33,10.16-9.33c3.62,0,6.45.98,8.45,2.15h.54V4.68c-2.49-1.27-5.52-2.1-10.65-2.1-10.65,0-18.08,7.43-18.08,17.49s7.28,17.64,18.13,17.64M57.9,7.9c.59,0,1.17.05,1.91.24h.54V2.14c-1.42-.24-2.54-.34-3.52-.34-7.53,0-10.75,3.71-10.85,10.21h-3.23v7.08h3.23v17.88h8.65v-17.88h5.47v-7.08h-5.47v-.39c0-2.3.78-3.72,3.27-3.72m-25.7,29.07h8.65V12.01h-8.65v24.97h0Zm4.35-27.59c2.59,0,4.74-2.15,4.74-4.69s-2.2-4.69-4.74-4.69-4.74,2-4.74,4.69,2.15,4.69,4.74,4.69m-18.42,28.33c5.18,0,8.99-1.12,12.17-3.27v-15.25h-9.09v9.97c-.64.29-1.32.39-2.25.39-6.01,0-9.38-4.2-9.38-9.48s3.52-9.33,10.16-9.33c3.62,0,6.45.98,8.45,2.15h.54V4.68c-2.49-1.27-5.52-2.1-10.65-2.1C7.43,2.58,0,10,0,20.07s7.28,17.64,18.13,17.64"/><polygon class="cls-1" points="80.54 12.01 75.02 12.01 75.02 6.73 68.76 6.73 67.74 12.01 62.51 12.01 62.51 19.09 67.05 19.09 67.05 36.98 75.51 36.98 75.46 19.09 80.54 19.09 80.54 12.01"/><path class="cls-1" d="m157.24,29.94c-3.08,0-5.52-2.39-5.52-5.47s2.44-5.42,5.57-5.42,5.57,2.39,5.57,5.42-2.49,5.47-5.62,5.47m.05-18.67c-7.67,0-14.02,5.72-14.02,13.19s6.16,13.29,13.97,13.29,14.07-5.81,14.07-13.29-6.35-13.19-14.02-13.19"/></g></g></svg>