<?xml version="1.0" encoding="UTF-8"?><svg id="Layer_2" xmlns="http://www.w3.org/2000/svg" xmlns:xlink="http://www.w3.org/1999/xlink" viewBox="0 0 216.76 83.42"><defs><style>.cls-1{clip-path:url(#clippath);}.cls-2,.cls-3{fill:#222148;}.cls-3{stroke-width:0px;}</style><clipPath id="clippath"><path class="cls-3" d="m11.2,60.7l25.4-14.68,25.4,14.68-25.4,14.68s-25.4-14.68-25.4-14.68Zm-3.73-31.51l21.67,12.52-21.67,12.52v-25.03h0Zm36.6,12.52l21.67-12.52v25.03l-21.67-12.52h0ZM11.2,22.72l25.4-14.67,25.4,14.67-25.4,14.68s-25.4-14.68-25.4-14.68ZM34.73.5L1.87,19.48c-1.16.67-1.87,1.9-1.87,3.24v37.98c0,1.34.71,2.57,1.87,3.24l32.86,18.98c.57.33,1.2.49,1.83.5h.08c.63,0,1.26-.17,1.83-.5l32.86-18.98c1.16-.67,1.87-1.9,1.87-3.24V22.72c0-1.34-.71-2.57-1.87-3.24L38.48.5c-.58-.33-1.23-.5-1.87-.5s-1.29.17-1.87.5"/></clipPath></defs><g id="Layer_1-2"><g id="Layer_1-2"><path class="cls-2" d="m11.2,60.7l25.4-14.68,25.4,14.68-25.4,14.68s-25.4-14.68-25.4-14.68Zm-3.73-31.51l21.67,12.52-21.67,12.52v-25.03h0Zm36.6,12.52l21.67-12.52v25.03l-21.67-12.52h0ZM11.2,22.72l25.4-14.67,25.4,14.67-25.4,14.68s-25.4-14.68-25.4-14.68ZM34.73.5L1.87,19.48c-1.16.67-1.87,1.9-1.87,3.24v37.98c0,1.34.71,2.57,1.87,3.24l32.86,18.98c.57.33,1.2.49,1.83.5h.08c.63,0,1.26-.17,1.83-.5l32.86-18.98c1.16-.67,1.87-1.9,1.87-3.24V22.72c0-1.34-.71-2.57-1.87-3.24L38.48.5c-.58-.33-1.23-.5-1.87-.5s-1.29.17-1.87.5"/><g class="cls-1"><rect class="cls-3" width="73.21" height="83.42"/></g><path class="cls-3" d="m202.19,38.4c1.81,0,3.34.55,4.59,1.65,1.25,1.1,2.02,2.58,2.3,4.42h-13.84c.28-1.88,1.04-3.36,2.3-4.45,1.25-1.08,2.8-1.63,4.65-1.63m14.57,8.73c0-3.04-.64-5.7-1.91-8s-3.02-4.06-5.25-5.29-4.72-1.84-7.47-1.84-5.37.64-7.65,1.92-4.07,3.07-5.38,5.37-1.96,4.87-1.96,7.73.66,5.48,1.99,7.75c1.32,2.28,3.2,4.06,5.64,5.34s5.24,1.92,8.41,1.92c5.08,0,8.95-1.57,11.59-4.72l-4.33-4.88c-.98.98-2.03,1.69-3.16,2.14s-2.43.68-3.89.68c-2.12,0-3.9-.52-5.33-1.57-1.43-1.05-2.33-2.48-2.72-4.29h21.25c.1-1.41.16-2.17.16-2.28m-46.79,7.97c-2.09,0-3.8-.73-5.14-2.2-1.34-1.46-2.01-3.43-2.01-5.88s.67-4.42,2.01-5.89c1.34-1.46,3.06-2.2,5.14-2.2s3.8.73,5.14,2.2c1.34,1.46,2.01,3.43,2.01,5.89s-.67,4.42-2.01,5.88c-1.34,1.46-3.06,2.2-5.14,2.2m1.41-23.1c-3.59,0-6.41,1.17-8.46,3.52v-14.15h-8.15v40.24h7.78v-3.36c2.02,2.53,4.96,3.8,8.82,3.8,2.61,0,4.99-.62,7.13-1.87s3.82-3,5.04-5.26c1.22-2.26,1.83-4.89,1.83-7.89s-.61-5.63-1.83-7.89-2.9-4.01-5.04-5.26-4.52-1.87-7.13-1.87m-30.76.43v14.43c0,2.6-.59,4.57-1.77,5.88-1.18,1.32-2.75,1.98-4.7,1.98-3.79,0-5.69-2.35-5.69-7.05v-15.24h-8.15v16.49c0,4.34,1.08,7.61,3.24,9.82,2.16,2.2,5.08,3.31,8.77,3.31,1.74,0,3.36-.33,4.86-1s2.79-1.63,3.86-2.9v3.47h7.73v-29.18h-8.15Zm-30.76,29.18h9.87l-16.03-21.04,15.14-16.92h-9.4l-16.19,17.73v-17.73h-8.41v37.96h8.41v-9.6l4.91-5.31s11.7,14.91,11.7,14.91Z"/></g></g></svg>