<?xml version="1.0" encoding="UTF-8"?><svg id="Layer_2" xmlns="http://www.w3.org/2000/svg" viewBox="0 0 215.69 22.26"><defs><style>.cls-1{fill:#222148;stroke-width:0px;}</style></defs><g id="Layer_1-2"><g id="Layer_2-2"><g id="Layer_2-3"><g id="Layer_1-2"><path class="cls-1" d="m5.95,9.73c0,.34.29.62.87.84.58.21,1.28.43,2.09.64.83.22,1.65.51,2.45.84.84.36,1.57.94,2.1,1.68.6.86.9,1.89.86,2.94.1,1.64-.65,3.22-2,4.17-1.48.97-3.23,1.47-5,1.42-3.59,0-6.03-1.35-7.32-4.05l4.42-2.52c.37,1.27,1.58,2.11,2.9,2,1.22,0,1.83-.36,1.83-1.06,0-.34-.28-.62-.86-.85-.69-.26-1.39-.48-2.1-.66-.84-.23-1.65-.51-2.45-.85-.83-.37-1.54-.94-2.09-1.66-.61-.78-.94-1.75-.92-2.74-.08-1.61.65-3.15,1.93-4.12,1.37-1,3.04-1.52,4.74-1.46,1.34-.02,2.66.3,3.85.93,1.16.63,2.12,1.57,2.79,2.71l-4.36,2.35c-.4-.91-1.29-1.5-2.28-1.5s-1.45.32-1.45.95Z"/><path class="cls-1" d="m25.51,9.67h-3.51v6c-.09.58.26,1.15.82,1.33.88.21,1.79.27,2.69.17v4.63c-3.25.34-5.49,0-6.74-.94s-1.82-2.7-1.82-5.17v-6h-2.78v-4.93h2.78V1.53l5.05-1.53v4.76h3.51v4.91Z"/><path class="cls-1" d="m39.56,4.76h5.11v17h-5.11v-1.6c-1.29,1.42-3.15,2.19-5.07,2.08-2.21.02-4.31-.94-5.75-2.61-1.59-1.74-2.44-4.03-2.38-6.38-.06-2.35.79-4.64,2.38-6.38,1.44-1.67,3.55-2.62,5.75-2.6,1.92-.11,3.78.65,5.07,2.07,0,0,0-1.58,0-1.58Zm-7,11.54c1.67,1.49,4.19,1.49,5.86,0,.77-.81,1.17-1.89,1.12-3,.05-1.11-.35-2.19-1.12-3-1.67-1.49-4.19-1.49-5.86,0-.76.81-1.17,1.89-1.12,3-.04,1.11.37,2.19,1.14,3h-.02Z"/><path class="cls-1" d="m57.53,9.67h-3.51v6c-.09.58.26,1.15.82,1.33.88.21,1.79.27,2.69.17v4.63c-3.25.34-5.49,0-6.74-.94s-1.84-2.7-1.84-5.17v-6h-2.75v-4.93h2.75V1.53l5.07-1.53v4.76h3.51v4.91Z"/><path class="cls-1" d="m70.95,4.76h5.11v17h-5.11v-1.6c-1.18,1.46-3,2.24-4.87,2.08-1.71.04-3.36-.64-4.54-1.88-1.27-1.41-1.93-3.27-1.82-5.17V4.76h5.11v9.7c-.06.85.24,1.69.83,2.3.58.54,1.34.82,2.13.8.86.04,1.7-.28,2.31-.89.62-.73.92-1.67.85-2.62,0,0,0-9.29,0-9.29Z"/><path class="cls-1" d="m83.56,9.73c0,.34.29.62.87.84.58.21,1.27.43,2.09.64.83.23,1.65.51,2.45.84.84.35,1.56.94,2.09,1.68.61.86.92,1.89.89,2.94.1,1.64-.65,3.22-2,4.17-1.48.97-3.23,1.47-5,1.42-3.58,0-6.02-1.35-7.31-4.05l4.31-2.52c.36,1.27,1.57,2.11,2.89,2,1.23,0,1.84-.36,1.84-1.06,0-.34-.29-.62-.87-.85-.68-.26-1.38-.48-2.09-.66-.84-.22-1.65-.51-2.45-.85-.83-.37-1.55-.94-2.09-1.66-.6-.79-.9-1.76-.87-2.75-.08-1.61.64-3.15,1.92-4.12,1.37-.99,3.03-1.5,4.72-1.45,1.34-.02,2.66.3,3.84.93,1.16.63,2.13,1.57,2.8,2.71l-4.36,2.35c-.4-.91-1.29-1.49-2.28-1.5-.91,0-1.39.32-1.39.95Z"/><path class="cls-1" d="m101.63,22.26c-4.87.1-8.9-3.77-9-8.64v-.36c-.11-4.86,3.74-8.89,8.6-9h.4c1.58-.01,3.14.4,4.51,1.19,1.32.75,2.42,1.84,3.18,3.16l-4.46,2.59c-.59-1.26-1.91-2.03-3.3-1.91-1.03-.03-2.03.37-2.75,1.11-.73.76-1.13,1.78-1.09,2.84-.04,1.06.35,2.08,1.09,2.84.72.74,1.72,1.14,2.75,1.11,1.39.12,2.71-.64,3.3-1.91l4.46,2.56c-.74,1.33-1.83,2.44-3.16,3.19-1.37.81-2.94,1.24-4.53,1.23Z"/><path class="cls-1" d="m122.52,4.76h5.11v17h-5.11v-1.6c-1.29,1.42-3.15,2.19-5.07,2.08-2.21.02-4.31-.94-5.75-2.61-1.59-1.74-2.44-4.03-2.38-6.38-.06-2.35.79-4.64,2.38-6.38,1.44-1.67,3.55-2.62,5.75-2.6,1.92-.11,3.78.65,5.07,2.07,0,0,0-1.58,0-1.58Zm-7,11.54c1.66,1.49,4.19,1.49,5.85,0,.77-.81,1.17-1.89,1.12-3,.05-1.11-.35-2.19-1.12-3-1.66-1.49-4.19-1.49-5.85,0-.77.81-1.18,1.89-1.13,3-.04,1.12.38,2.2,1.16,3h-.03Z"/><path class="cls-1" d="m135.18,9.73c0,.34.29.62.87.84.58.21,1.28.43,2.09.64.83.22,1.65.51,2.45.84.84.36,1.57.94,2.1,1.68.6.86.9,1.89.86,2.94.1,1.64-.65,3.22-2,4.17-1.48.97-3.23,1.47-5,1.42-3.59,0-6.03-1.35-7.32-4.05l4.42-2.52c.37,1.27,1.58,2.11,2.9,2,1.22,0,1.83-.36,1.83-1.06,0-.34-.29-.62-.86-.85-.69-.26-1.39-.48-2.1-.66-.84-.23-1.65-.51-2.45-.85-.83-.37-1.54-.94-2.09-1.66-.62-.78-.94-1.75-.93-2.74-.08-1.61.65-3.15,1.93-4.12,1.37-1,3.04-1.52,4.74-1.46,1.34-.02,2.66.3,3.85.93,1.16.63,2.12,1.57,2.79,2.71l-4.36,2.35c-.4-.91-1.29-1.5-2.28-1.5s-1.44.32-1.44.95h0Z"/><path class="cls-1" d="m154.72,9.67h-3.51v6c-.07.57.27,1.11.82,1.29.88.21,1.79.27,2.69.17v4.63c-3.25.34-5.49,0-6.74-.94s-1.87-2.68-1.87-5.15v-6h-2.73v-4.91h2.73V1.53l5.1-1.53v4.76h3.51v4.91h0Z"/><path class="cls-1" d="m205.15.5c-5.82,0-10.54,4.72-10.54,10.54s4.72,10.54,10.54,10.54,10.54-4.72,10.54-10.54v-.04c-.03-5.8-4.74-10.49-10.54-10.5Z"/><path class="cls-1" d="m174.1,11c0-2.93.96-5.79,2.74-8.12-4.48-3.71-11.13-3.08-14.84,1.4-3.71,4.48-3.08,11.13,1.4,14.84,3.9,3.23,9.54,3.23,13.44,0-1.77-2.34-2.73-5.19-2.74-8.12Z"/><path class="cls-1" d="m191.61,11c0-2.93.96-5.79,2.74-8.12-4.48-3.71-11.13-3.08-14.84,1.4-3.71,4.48-3.08,11.13,1.4,14.84,3.9,3.23,9.54,3.23,13.44,0-1.78-2.33-2.74-5.19-2.74-8.12Z"/></g></g></g></g></svg>