<?xml version="1.0" standalone="no"?>
<!DOCTYPE svg PUBLIC "-//W3C//DTD SVG 20010904//EN"
 "http://www.w3.org/TR/2001/REC-SVG-20010904/DTD/svg10.dtd">
<svg version="1.0" xmlns="http://www.w3.org/2000/svg"
 width="1110.000000pt" height="1110.000000pt" viewBox="0 0 1110.000000 1110.000000"
 preserveAspectRatio="xMidYMid meet">
<metadata>
Created by potrace 1.14, written by Peter Selinger 2001-2017
</metadata>
<g transform="translate(0.000000,1110.000000) scale(0.100000,-0.100000)"
fill="#000000" stroke="none">
<path d="M3024 10373 l1 -728 3035 0 3035 0 2 -3020 c1 -1661 2 -3027 2 -3036
1 -15 62 -17 726 -17 l725 0 0 3764 0 3764 -3764 0 -3763 0 1 -727z"/>
<path d="M572 7612 l-22 -3 3 -2512 c2 -1382 6 -2525 9 -2542 3 -16 8 -56 12
-88 4 -32 16 -106 27 -165 12 -59 23 -118 25 -132 3 -14 7 -33 10 -42 3 -9 7
-25 9 -35 9 -46 57 -197 86 -274 17 -46 38 -102 46 -124 25 -68 136 -285 198
-385 363 -590 929 -1010 1615 -1199 69 -19 205 -50 240 -55 15 -3 75 -13 135
-23 17 -2 41 -6 55 -8 190 -26 675 -27 860 0 100 14 177 26 205 31 11 3 35 7
53 10 67 11 269 63 366 94 98 32 314 119 397 161 278 141 553 353 715 552 27
33 32 36 38 20 9 -23 51 -136 156 -418 44 -121 91 -247 103 -280 l23 -60 777
-3 c427 -1 777 1 777 5 0 3 -54 162 -121 352 -66 190 -141 405 -166 476 -25
72 -68 193 -95 270 -27 77 -56 160 -64 185 -9 25 -18 52 -21 60 -3 8 -7 20 -9
25 -1 6 -12 36 -23 67 l-21 58 0 2990 c0 2385 -3 2990 -12 2991 -15 1 -1419 1
-1433 0 -7 -1 -10 -752 -11 -2268 0 -1960 -4 -2427 -19 -2453 -2 -3 -6 -27 -9
-55 -10 -71 -52 -236 -86 -331 -181 -516 -589 -904 -1110 -1058 -47 -14 -96
-27 -110 -30 -14 -2 -36 -7 -50 -10 -35 -8 -78 -15 -130 -21 -25 -3 -61 -8
-80 -10 -45 -5 -262 -6 -320 -1 -47 4 -181 19 -190 21 -3 1 -23 5 -45 9 -578
110 -1042 504 -1238 1051 -24 69 -62 197 -71 245 -3 14 -8 36 -11 50 -3 14 -9
54 -15 90 -5 36 -12 85 -16 110 -4 25 -8 1081 -9 2348 -1 1266 -5 2305 -8
2308 -6 7 -1382 12 -1425 6z"/>
</g>
</svg>
