<?xml version="1.0" encoding="utf-8"?>
<!-- Generator: Adobe Illustrator 23.0.6, SVG Export Plug-In . SVG Version: 6.00 Build 0)  -->
<svg version="1.1" id="Layer_1" xmlns="http://www.w3.org/2000/svg" xmlns:xlink="http://www.w3.org/1999/xlink" x="0px" y="0px"
	 viewBox="0 0 1365.4 399.6" style="enable-background:new 0 0 1365.4 399.6;" xml:space="preserve">
<style type="text/css">
	.st0{fill:#28ABE2;}
	.st1{enable-background:new    ;}
	.st2{fill:#59595C;}
	.st3{fill:#2A3693;}
</style>
<polygon class="st0" points="9,140.3 87.8,140.3 87.8,299.3 137.4,299.3 137.4,140.3 216.2,140.3 216.2,90.2 9,90.2 "/>
<path class="st0" d="M494.1,159.7c0,0,0-69.5-54.5-69.5H258.4v209.1h49.8v-159h123.7c8.8,0,8.8,19.4,8.8,19.4s0,19.7-8.8,18.9H344
	l88.8,120.7h60.5l-54.5-70.6C494.1,228.7,494.1,159.7,494.1,159.7z"/>
<path class="st0" d="M755.6,90.2h-49.8v148.5c-9.3,17.5-59.9,17.5-59.9,17.5s-50.6,0-59.9-17.5V90.1h-49.9v167
	c4.4,46.8,109.8,46.8,109.8,46.8s105.4,0,109.8-46.8h-0.1L755.6,90.2L755.6,90.2z"/>
<polygon class="st0" points="955.8,140.3 955.8,90.2 797.9,90.2 797.9,299.3 955.8,299.3 955.8,249.2 847.7,249.2 847.7,219.7 
	953.1,219.7 953.1,169.6 847.7,169.6 847.7,140.3 "/>
<g>
	<g class="st1">
		<path class="st2" d="M265.8,327.3v44.6H258v-44.6H265.8z"/>
		<path class="st2" d="M316.9,321.8V357c0,10.1-4.5,14.9-12.8,14.9h-9.7c-9.3,0-15.1-5.7-15.1-17.5s5.8-17.5,15.1-17.5h15.4v-15.1
			H316.9z M309.8,356.6v-12.9H295c-6,0-8.7,3.2-8.7,10.7S289,365,295,365h6.9C307.6,365.1,309.8,362.6,309.8,356.6z"/>
		<path class="st2" d="M354.3,337c8.3,0,11.8,4,11.8,10.7c0,6.4-3.2,10.1-11.8,10.1h-16.6v2.5c0,2.8,1.5,4.8,5.4,4.8h21.4v6.8H343
			c-8.7,0-12.2-4.9-12.2-11.5v-11.9c0-6.6,3.4-11.5,12.2-11.5H354.3z M337.7,352.3h16.4c3.8,0,5.2-1.6,5.2-4.2s-1.5-4.4-5-4.4H343
			c-3.8,0-5.4,2.1-5.4,4.8v3.8H337.7z"/>
		<path class="st2" d="M398.7,337c11.8,0,17.6,5.6,17.6,15.3v19.6h-7.1v-19.6c0-5.5-3.2-8.5-10.5-8.5h-11.4c-0.6,0-0.9,0.3-0.9,1
			V372h-7v-29.5c0-4.1,1.4-5.4,4.9-5.4h14.4V337z"/>
		<path class="st2" d="M432.1,337v-8.3h7.1v8.3h9.7v6.7h-9.7v16.5c0,3.9,1.4,5.2,4.7,5.2h4.8v6.4h-6.3c-7.2,0-10.3-2.9-10.3-12
			v-16.1h-4.8V337H432.1z"/>
		<path class="st2" d="M467.5,323.8v8.1h-7.1v-8.1H467.5z M467.4,337v34.9h-7V337H467.4z"/>
		<path class="st2" d="M483.4,337v-8.3h7.1v8.3h9.7v6.7h-9.7v16.5c0,3.9,1.4,5.2,4.7,5.2h4.8v6.4h-6.3c-7.2,0-10.3-2.9-10.3-12
			v-16.1h-4.8V337H483.4z"/>
		<path class="st2" d="M548.2,337l-21,48.9h-7.5l6.5-15.3c-4,0-5.4-1.3-6.5-4.3L507.9,337h7.4l10.5,26c0.5,1.3,0.8,1.5,2.1,1.5h0.9
			l11.8-27.5H548.2z"/>
		<path class="st2" d="M616.4,327.3v7.8h-22.9c-4,0-5.8,2.2-5.8,5.3c0,2.7,1.4,5.3,6.6,5.3h10.5c12.2,0,15,6.7,15,13.2
			c0,7.5-4,13.1-14.2,13.1h-24.9v-7.8h25.1c4.2,0,6.2-2.3,6.2-5.6c0-2.9-1.5-5.6-7-5.6h-10.4c-11.9,0-14.7-6.7-14.7-12.9
			c0-7.4,4-12.8,13.9-12.8H616.4z"/>
		<path class="st2" d="M639.8,323.8v8.1h-7.1v-8.1H639.8z M639.7,337v34.9h-7V337H639.7z"/>
		<path class="st2" d="M695.3,337c11.8,0,17.7,5.6,17.7,15.3v19.6h-7.1v-19.6c0-5.5-3.2-8.5-10.5-8.5h-8.2V372h-7.1v-28.2h-17.7
			c-0.6,0-0.9,0.3-0.9,1V372h-7v-29.5c0-4.1,1.4-5.4,4.9-5.4h35.9V337z"/>
		<path class="st2" d="M749.8,337c9.3,0,15.1,5.7,15.1,17.5s-5.8,17.5-15.1,17.5h-15.5v14h-7v-34c0-10.1,4.4-14.9,12.8-14.9h9.7V337
			z M734.3,365.1h14.8c6.1,0,8.7-3.1,8.7-10.6s-2.6-10.7-8.7-10.7h-6.9c-5.7,0-7.9,2.5-7.9,8.5L734.3,365.1L734.3,365.1z"/>
		<path class="st2" d="M785,321.8v50.1h-7v-50.1H785z"/>
		<path class="st2" d="M806.8,323.8v8.1h-7.1v-8.1H806.8z M806.7,337v34.9h-7V337H806.7z"/>
		<path class="st2" d="M822.8,337v-3.1c0-9.1,3.1-12,10.3-12h6.3v6.4h-4.8c-3.3,0-4.7,1.3-4.7,5.2v3.5h9.7v6.7h-9.7v28.2h-7.1v-28.2
			H818V337H822.8z"/>
		<path class="st2" d="M858.1,323.8v8.1H851v-8.1H858.1z M858,337v34.9h-7V337H858z"/>
		<path class="st2" d="M895.5,337c8.3,0,11.8,4,11.8,10.7c0,6.4-3.2,10.1-11.8,10.1h-16.6v2.5c0,2.8,1.5,4.8,5.4,4.8h21.4v6.8h-21.4
			c-8.7,0-12.2-4.9-12.2-11.5v-11.9c0-6.6,3.4-11.5,12.2-11.5H895.5z M878.9,352.3h16.4c3.8,0,5.2-1.6,5.2-4.2s-1.5-4.4-5-4.4h-11.2
			c-3.8,0-5.4,2.1-5.4,4.8V352.3z"/>
		<path class="st2" d="M956.6,321.8V357c0,10.1-4.5,14.9-12.8,14.9h-9.7c-9.3,0-15.1-5.7-15.1-17.5s5.8-17.5,15.1-17.5h15.4v-15.1
			H956.6z M949.5,356.6v-12.9h-14.8c-6,0-8.7,3.2-8.7,10.7s2.7,10.6,8.7,10.6h6.9C947.3,365.1,949.5,362.6,949.5,356.6z"/>
	</g>
</g>
<g>
	
		<ellipse transform="matrix(0.5547 -0.832 0.832 0.5547 361.3235 901.937)" class="st3" cx="1023.3" cy="113.4" rx="22.9" ry="22.9"/>
	<path class="st3" d="M1043.9,250.4c-1.5-25.9,0-103.6,0-103.6h-43v96.1c0,0,0,5,0,7.6c0,13.9,8,30.2,18.9,49.1l35.2-21.4
		C1055,278.1,1044.3,258.5,1043.9,250.4z"/>
	<g>
		<g>
			<g>
				<path class="st3" d="M1260.4,351.5c21.5-12.4,40.3-29.4,54.8-49.6c14.5-20.1,24.7-43.4,29.6-67.7l8.8,1.7
					c-5.1,25.6-15.8,50.1-31.1,71.2c-15.2,21.2-35,39-57.5,52.1L1260.4,351.5z"/>
			</g>
			<g>
				<path class="st3" d="M1306.8,312.7c2.5-2.6,4.4-5.6,6.6-8.4l7.2,5.3c-2.3,3-4.3,6.2-6.9,8.9L1306.8,312.7z"/>
			</g>
			<g>
				<path class="st3" d="M1274.2,342.7l6.7-5.1c2.2-1.7,4.5-3.3,6.6-5.3l6.2-5.7c2.1-1.9,4.2-3.8,6-5.9l6.5,6.2
					c-1.9,2.3-4.1,4.2-6.3,6.2l-6.5,6c-2.1,2.1-4.5,3.8-6.9,5.6l-7.1,5.4L1274.2,342.7z"/>
			</g>
			<g>
				<polygon class="st3" points="1258.2,352.8 1267.4,347.2 1272.2,354.8 1262.6,360.6 				"/>
			</g>
			<g>
				<path class="st3" d="M1232.6,364.4c3.4-1.3,6.8-2.5,10.1-3.9l9.7-4.8l4.1,8l-10.2,5c-3.5,1.4-7.1,2.7-10.7,4.1L1232.6,364.4z"/>
			</g>
			<g>
				<polygon class="st3" points="1213.2,370.2 1223.6,367.4 1226.2,376 1215.3,378.9 				"/>
			</g>
			<g>
				<path class="st3" d="M1169.2,374.7c5.6,0.4,11.3-0.1,16.9-0.4c2.8-0.2,5.6-0.2,8.4-0.7l8.4-1.3l1.5,8.8l-8.8,1.4
					c-2.9,0.5-5.9,0.5-8.9,0.7c-5.9,0.3-11.8,0.9-17.8,0.4L1169.2,374.7z"/>
			</g>
			<g>
				<path class="st3" d="M1148.4,372.9c3.5,0.4,7.1,1.1,10.6,1.3l-0.7,8.9c-3.7-0.2-7.4-0.9-11.2-1.4L1148.4,372.9z"/>
			</g>
			<g>
				<path class="st3" d="M1229.2,349.4c37.8-14,69.7-43,87.3-79.3l8,3.9c-18.6,38.3-52.3,68.9-92.2,83.8L1229.2,349.4z"/>
			</g>
			<g>
				<polygon class="st3" points="1264.9,330.6 1272.8,324.7 1278.3,331.6 1270.1,337.9 				"/>
			</g>
			<g>
				<polygon class="st3" points="1229.2,349.4 1236.4,346.6 1243.3,343.2 1250.3,339.8 1256.9,335.8 1261.5,343.4 1254.6,347.6 
					1247.3,351.3 1240,354.8 1232.3,357.7 				"/>
			</g>
			<g>
				<path class="st3" d="M1212.7,354.5l9.4-2.5l2.7,8.5c-3.3,1-6.7,1.8-10,2.7L1212.7,354.5z"/>
			</g>
			<g>
				<path class="st3" d="M1187.5,358.9c3.3-0.1,6.6-0.7,9.8-1.2l9.8-1.6l1.9,8.7l-10.3,1.7c-3.4,0.6-6.9,1.2-10.4,1.3L1187.5,358.9z
					"/>
			</g>
			<g>
				<path class="st3" d="M1169,359.4c3.3,0.1,6.5,0.4,9.8,0l0.3,8.9c-3.4,0.3-6.9,0.1-10.3,0L1169,359.4z"/>
			</g>
			<g>
				<path class="st3" d="M1129,353.3c5,1.2,10,2.6,15,3.6c5.1,0.7,10.2,1.5,15.3,2.1l-0.8,8.9c-5.4-0.6-10.8-1.5-16.1-2.2
					c-5.3-1-10.6-2.5-15.9-3.8L1129,353.3z"/>
			</g>
			<g>
				<path class="st3" d="M1111,347c3,1.3,6.1,2.3,9.2,3.4l-3,8.4c-3.2-1.2-6.5-2.2-9.7-3.6L1111,347z"/>
			</g>
			<g>
				<path class="st3" d="M1217.6,336.2c-17.4,5.7-35.9,7.9-54.3,6.6l-0.6,8.9c19.5,1.4,39.1-0.9,57.7-7L1217.6,336.2z"/>
			</g>
			<g>
				<path class="st3" d="M1233.4,329.9c-1.3,0.6-2.6,1.3-3.9,1.9l-4.1,1.5l3.3,8.3l4.4-1.6c1.4-0.6,2.8-1.4,4.2-2L1233.4,329.9z"/>
			</g>
			<g>
				<path class="st3" d="M1264.2,310.6c-15.3,12.5-33.2,21.9-52.2,27.2l2.4,8.6c20.2-5.7,39.2-15.6,55.5-28.9L1264.2,310.6z"/>
			</g>
			<g>
				<path class="st3" d="M1275.7,300.1c-2,2.1-4.3,4-6.4,6l6,6.6c2.3-2.1,4.7-4.1,6.8-6.4L1275.7,300.1z"/>
			</g>
			<g>
				<path class="st3" d="M1290.3,282.3l-5.3,7.1c-1.8,2.4-3.9,4.4-5.9,6.7l6.6,6c2.1-2.4,4.3-4.6,6.2-7.1l5.6-7.6L1290.3,282.3z"/>
			</g>
			<g>
				<polygon class="st3" points="1299.1,268.3 1294.6,275.9 1302.2,280.6 1307,272.6 				"/>
			</g>
			<g>
				<path class="st3" d="M1312.1,234.5l-1.6,6.7l-2.3,6.5l-2.3,6.5c-0.9,2.1-2,4.2-2.9,6.3l8.1,3.8c1-2.2,2.2-4.4,3.1-6.7l2.5-6.9
					l2.5-6.9l1.8-7.1L1312.1,234.5z"/>
			</g>
			<g>
				<polygon class="st3" points="1315.2,217.6 1314,226.3 1322.7,228 1324,218.7 				"/>
			</g>
			<g>
				<path class="st3" d="M1074.2,344.1c18.4,12.7,39.4,21.8,61.3,26.6l-1.9,8.7c-23-5-45-14.6-64.4-27.9L1074.2,344.1z"/>
			</g>
			<g>
				<path class="st3" d="M1057.8,331.2c2.7,2.4,5.3,4.8,8.2,6.9l-5.5,7c-3.1-2.1-5.8-4.7-8.6-7.2L1057.8,331.2z"/>
			</g>
			<g>
				<path class="st3" d="M1028.4,298.1c3.3,4.6,6.8,9,10.1,13.5c3.7,4.2,7.6,8.3,11.4,12.5l-6.3,6.3c-4-4.4-8.1-8.7-12-13.1
					c-3.6-4.7-7.2-9.4-10.7-14.2L1028.4,298.1z"/>
			</g>
			<g>
				<path class="st3" d="M1052.4,304.1c13.3,15.5,29.7,28.4,47.8,37.8l-4.1,7.9c-19.2-9.9-36.4-23.5-50.5-39.9L1052.4,304.1z"/>
			</g>
			<g>
				<path class="st3" d="M1326.4,244.8c1.2-5,2.6-10,3.6-15l2.2-15.3l8.9,0.8l-2.3,16.1c-1.1,5.3-2.5,10.6-3.8,15.8L1326.4,244.8z"
					/>
			</g>
			<g>
				<path class="st3" d="M1320,262.8c1.4-2.9,2.3-6.1,3.5-9.1l8.4,3c-1.2,3.2-2.1,6.6-3.7,9.7L1320,262.8z"/>
			</g>
			<g>
				<polygon class="st3" points="1071.1,300.3 1065.1,293.8 1058.4,299.7 1064.7,306.5 				"/>
			</g>
			<g>
				<path class="st3" d="M1099.9,322.9c-2.2-1.4-4.6-2.6-6.7-4.1l-6.3-4.7c-4.4-2.9-8.1-6.7-12-10.1l-6.1,6.5
					c4.2,3.7,8.1,7.7,12.8,10.8l6.7,5c2.3,1.6,4.8,2.9,7.1,4.4L1099.9,322.9z"/>
			</g>
			<g>
				<polygon class="st3" points="1102.4,324.4 1094.8,319.9 1089.9,327.3 1097.9,332.1 				"/>
			</g>
			<g>
				<path class="st3" d="M1135.8,338.2c-4.6-0.9-8.8-2.8-13.2-4.2c-4.4-1.3-8.5-3.6-12.7-5.5l-3.9,8c4.5,2,8.8,4.4,13.5,5.8
					c4.7,1.5,9.2,3.6,14,4.5L1135.8,338.2z"/>
			</g>
			<g>
				<path class="st3" d="M1152.7,341.6l-4.4-0.6c-1.5-0.2-2.9-0.4-4.3-0.8l-1.8,8.7c1.5,0.4,3,0.6,4.6,0.8l4.6,0.6L1152.7,341.6z"/>
			</g>
		</g>
		<g>
			<g>
				<path class="st3" d="M1072.2,57.4l-6.7,5.1c-2.2,1.7-4.5,3.3-6.6,5.3l-6.2,5.7c-2.1,1.9-4.2,3.8-6,5.9l-6.5-6.2
					c1.9-2.3,4.1-4.2,6.3-6.2l6.5-6c2.1-2.1,4.5-3.8,6.9-5.6l7.1-5.4L1072.2,57.4z"/>
			</g>
			<g>
				<polygon class="st3" points="1088.2,47.2 1079.1,52.9 1074.3,45.3 1083.9,39.4 				"/>
			</g>
			<g>
				<path class="st3" d="M1113.8,35.7c-3.4,1.3-6.8,2.5-10.1,3.9l-9.7,4.8l-4.1-8l10.2-5c3.5-1.4,7.1-2.7,10.7-4.1L1113.8,35.7z"/>
			</g>
			<g>
				<polygon class="st3" points="1133.2,29.9 1122.9,32.7 1120.3,24.1 1131.2,21.2 				"/>
			</g>
			<g>
				<path class="st3" d="M1177.3,25.4c-5.6-0.4-11.3,0.1-16.9,0.4c-2.8,0.2-5.6,0.2-8.4,0.7l-8.4,1.3l-1.5-8.8l8.8-1.4
					c2.9-0.5,5.9-0.5,8.9-0.7c5.9-0.3,11.8-0.9,17.8-0.4L1177.3,25.4z"/>
			</g>
			<g>
				<path class="st3" d="M1198.1,27.2c-3.5-0.4-7.1-1.1-10.6-1.3l0.7-8.9c3.7,0.2,7.4,0.9,11.2,1.4L1198.1,27.2z"/>
			</g>
			<g>
				<polygon class="st3" points="1081.5,69.5 1073.7,75.4 1068.1,68.5 1076.4,62.2 				"/>
			</g>
			<g>
				<polygon class="st3" points="1117.3,50.7 1110,53.5 1103.1,56.9 1096.2,60.3 1089.6,64.3 1084.9,56.7 1091.9,52.4 1099.2,48.8 
					1106.5,45.3 1114.1,42.4 				"/>
			</g>
			<g>
				<path class="st3" d="M1133.8,45.5l-9.4,2.5l-2.7-8.5c3.3-1,6.7-1.8,10-2.7L1133.8,45.5z"/>
			</g>
			<g>
				<path class="st3" d="M1159,41.2c-3.3,0.1-6.6,0.7-9.8,1.2l-9.8,1.6l-1.9-8.7l10.3-1.7c3.4-0.6,6.9-1.2,10.4-1.3L1159,41.2z"/>
			</g>
			<g>
				<path class="st3" d="M1177.5,40.7c-3.3-0.1-6.5-0.4-9.8,0l-0.3-8.9c3.4-0.3,6.9-0.1,10.3,0L1177.5,40.7z"/>
			</g>
			<g>
				<path class="st3" d="M1217.4,46.7c-5-1.2-10-2.6-15-3.6c-5.1-0.7-10.2-1.5-15.3-2.1l0.8-8.9c5.4,0.6,10.8,1.5,16.1,2.2
					c5.3,1,10.6,2.5,15.9,3.8L1217.4,46.7z"/>
			</g>
			<g>
				<path class="st3" d="M1235.5,53.1c-3-1.3-6.1-2.3-9.2-3.4l3-8.4c3.2,1.2,6.5,2.2,9.7,3.6L1235.5,53.1z"/>
			</g>
			<g>
				<path class="st3" d="M1128.9,63.9c17.4-5.7,35.9-7.9,54.3-6.6l0.6-8.9c-19.5-1.4-39.1,0.9-57.7,7L1128.9,63.9z"/>
			</g>
			<g>
				<path class="st3" d="M1113,70.2c1.3-0.6,2.6-1.3,3.9-1.9l4.1-1.5l-3.3-8.3l-4.4,1.6c-1.4,0.6-2.8,1.4-4.2,2L1113,70.2z"/>
			</g>
			<g>
				<path class="st3" d="M1082.3,89.5c15.3-12.5,33.2-21.9,52.2-27.2l-2.4-8.6c-20.2,5.7-39.2,15.6-55.5,28.9L1082.3,89.5z"/>
			</g>
			<g>
				<path class="st3" d="M1070.8,100c2-2.1,4.3-4,6.4-6l-6-6.6c-2.3,2.1-4.7,4.1-6.8,6.4L1070.8,100z"/>
			</g>
			<g>
				<path class="st3" d="M1272.3,56c-18.4-12.7-39.4-21.8-61.3-26.6l1.9-8.7c23,5,45,14.6,64.4,27.9L1272.3,56z"/>
			</g>
			<g>
				<path class="st3" d="M1288.7,68.9c-2.7-2.4-5.3-4.8-8.2-6.9l5.5-7c3.1,2.1,5.8,4.7,8.6,7.2L1288.7,68.9z"/>
			</g>
			<g>
				<path class="st3" d="M1318,102c-3.3-4.6-6.8-9-10.1-13.5c-3.7-4.2-7.6-8.3-11.4-12.5l6.3-6.3c4,4.4,8.1,8.7,12,13.1
					c3.6,4.7,7.2,9.4,10.7,14.2L1318,102z"/>
			</g>
			<g>
				<path class="st3" d="M1327.7,118.3c-1.4-3.3-3.6-6.2-5.4-9.3l7.6-4.7c1.9,3.2,4.1,6.3,5.6,9.7L1327.7,118.3z"/>
			</g>
			<g>
				<path class="st3" d="M1338.8,144.1c-2.6-6.8-4.8-13.6-8.3-20l8-3.9c3.6,6.7,6,13.9,8.7,21L1338.8,144.1z"/>
			</g>
			<g>
				<polygon class="st3" points="1344.3,163.6 1341.6,153.2 1350.2,150.8 1353,161.8 				"/>
			</g>
			<g>
				<path class="st3" d="M1347.7,207.8l0.3-8.4c0.1-2.8-0.3-5.6-0.4-8.4l-0.5-8.4c-0.1-2.8-0.8-5.6-1.2-8.4l8.8-1.3
					c0.4,2.9,1.1,5.8,1.2,8.8l0.6,8.9c0.1,3,0.5,5.9,0.4,8.9l-0.3,8.9L1347.7,207.8z"/>
			</g>
			<g>
				<path class="st3" d="M1294.1,96c-13.3-15.5-29.7-28.4-47.8-37.8l4.1-7.9c19.2,9.9,36.4,23.5,50.5,39.9L1294.1,96z"/>
			</g>
			<g>
				<path class="st3" d="M1305.7,111.1c-1.8-2.7-3.9-5.2-5.8-7.9l7.1-5.4c2,2.8,4.2,5.4,6.1,8.3L1305.7,111.1z"/>
			</g>
			<g>
				<path class="st3" d="M1323.7,147.2c-4.9-15-12.8-28.8-22-41.5l7.2-5.3c9.7,13.4,18,28.1,23.2,43.9L1323.7,147.2z"/>
			</g>
			<g>
				<polygon class="st3" points="1328.6,163.8 1326.1,154.4 1334.6,151.8 1337.3,161.8 				"/>
			</g>
			<g>
				<path class="st3" d="M1332.3,189.2c-0.1-6.6-1.4-13.1-2.5-19.6l8.8-1.7c1.1,6.9,2.5,13.7,2.6,20.7L1332.3,189.2z"/>
			</g>
			<g>
				<polygon class="st3" points="1332.5,207.7 1332.8,197.9 1341.8,197.8 1341.4,208.1 				"/>
			</g>
			<g>
				<path class="st3" d="M1310.3,158.6c5.3,17.5,7.2,36.1,5.6,54.4l8.9,0.8c1.7-19.5-0.3-39.2-6-57.8L1310.3,158.6z"/>
			</g>
			<g>
				<path class="st3" d="M1304.4,142.5c1.2,2.7,2.1,5.5,3.2,8.2l8.4-3.1c-1.1-2.9-2.1-5.9-3.4-8.7L1304.4,142.5z"/>
			</g>
			<g>
				<path class="st3" d="M1285.6,111.5c2.7,3.8,5.8,7.2,8,11.3c2.3,4,5.1,7.7,6.9,12l7.9-4.1c-1.9-4.5-4.9-8.5-7.3-12.7
					c-2.4-4.3-5.7-8-8.5-12L1285.6,111.5z"/>
			</g>
			<g>
				<polygon class="st3" points="1275.4,99.8 1281.3,106.3 1288.1,100.4 1281.8,93.5 				"/>
			</g>
			<g>
				<path class="st3" d="M1246.6,77.2c2.2,1.4,4.6,2.6,6.7,4.1l6.3,4.7c4.4,2.9,8.1,6.7,12,10.1l6.1-6.5c-4.2-3.7-8.1-7.7-12.8-10.8
					l-6.7-5c-2.3-1.6-4.8-2.9-7.1-4.4L1246.6,77.2z"/>
			</g>
			<g>
				<polygon class="st3" points="1244.1,75.7 1251.6,80.2 1256.5,72.8 1248.5,68 				"/>
			</g>
			<g>
				<path class="st3" d="M1210.6,61.9c4.6,0.9,8.8,2.8,13.2,4.2c4.4,1.3,8.5,3.6,12.7,5.5l3.9-8c-4.5-2-8.8-4.4-13.5-5.8
					c-4.7-1.5-9.2-3.6-14-4.5L1210.6,61.9z"/>
			</g>
			<g>
				<path class="st3" d="M1193.8,58.5l4.4,0.6c1.5,0.2,2.9,0.4,4.3,0.8l1.8-8.7c-1.5-0.4-3-0.6-4.6-0.8l-4.6-0.6L1193.8,58.5z"/>
			</g>
		</g>
	</g>
</g>
<g class="st1">
	<path class="st3" d="M1088.2,285.6V112.9h139.2c45,0,45,57.4,45,57.4v57.6c0,0,0,57.6-45,57.6H1088.2z M1228.4,170.3
		c0,0,0-16-7.5-16h-91.5v90h91.5c7.5,0,7.5-16.3,7.5-16.3V170.3z"/>
</g>
</svg>
